<svg xmlns="http://www.w3.org/2000/svg" width="620" height="545" viewBox="0 0 620 545"><defs><style>.cls-1{fill:#cdc;}.cls-2{fill:#fff;}.cls-3{fill:#b38867;}.cls-4{fill:#626d71;}</style></defs><g id="Layer_3" data-name="Layer 3"><circle class="cls-1" cx="304.5" cy="271" r="189"/><circle class="cls-2" cx="304" cy="271.5" r="127.5"/><path class="cls-3" d="M452.5,58c-105-13-265,139-241,210s99,67,99,67c74-17,70-47,70-47-79,28-106-20-106-20-8-60,99-152,99-152C402.5,86,452.5,58,452.5,58Z"/><path class="cls-3" d="M325.5,251c64-14,56,52,56,52-8,101-94,131-94,131-65,19-104-34-104-34,20,90,99.16,87.2,99.16,87.2,56.84-11.2,74.84-46.72,74.84-46.72,53-47.48,65-124.48,65-124.48,14-84-60-83-60-83C348.5,230,325.5,251,325.5,251Z"/><path class="cls-4" d="M358.5,451.84v31.68h-8.25V451.84Zm20.5,0-14.88,17.81-.53-1.25-7.53,9.17-1.59-6.67,15.36-19.06Zm-12.19,10.47,12.77,21.21h-9.36l-9.6-16.61Z"/><path class="cls-4" d="M383.51,483.52V451.84h24.67v6.39H391.77v6.43h13.05v6H391.77v6.48h17v6.38Z"/><path class="cls-4" d="M428.92,451.84c3.78,0,6.71.89,8.81,2.67a8.81,8.81,0,0,1,3.14,7.08q0,4.85-3.12,7.39T429,471.52l-.77.43h-6.29v11.57H413.8V451.84Zm-1.15,14.26a5.69,5.69,0,0,0,3.6-1,3.71,3.71,0,0,0,1.2-3.07,3.65,3.65,0,0,0-1.2-3,5.69,5.69,0,0,0-3.6-1h-5.86v8Zm4.85,1.73,10.12,15.69h-9.12l-8.11-13.87Z"/><path class="cls-4" d="M443.56,483.52l11.14-31.68h9.88l11.09,31.68h-8.49L461,463.17l-1.39-5h-.09l-1.3,4.94-6.34,20.4Zm7.25-7.15v-5.62h17.61v5.62Z"/><path class="cls-4" d="M516,451.84v31.68h-7.3V469l.24-9.75h-.09l-7.83,24.29h-6.67l-7.82-24.29h-.1l.24,9.75v14.54h-7.34V451.84h11.76l5,16.13,1.78,6.72H498l1.83-6.67,4.94-16.18Z"/><path class="cls-4" d="M531.3,451.84v31.68h-8.25V451.84Z"/><path class="cls-4" d="M546.57,451.84v31.68h-8.26V451.84Zm20.49,0-14.88,17.81-.53-1.25-7.53,9.17-1.59-6.67,15.36-19.06Zm-12.19,10.47,12.77,21.21h-9.36l-9.6-16.61Z"/></g></svg>